<svg xmlns="http://www.w3.org/2000/svg" xmlns:xlink="http://www.w3.org/1999/xlink" id="processonSvg1000" viewBox="8.0 64.0 944.0 822.0" width="944.0" height="822.0"><defs id="ProcessOnDefs1001"><marker id="ProcessOnMarker1011" markerUnits="userSpaceOnUse" orient="auto" markerWidth="16.23606797749979" markerHeight="10.550836550532098" viewBox="-1.0 -1.3763819204711736 16.23606797749979 10.550836550532098" refX="-1.0" refY="3.8990363547948754"><path id="ProcessOnPath1012" d="M12.0 3.8990363547948754L0.0 7.798072709589751V0.0Z" stroke="#323232" stroke-width="2.0" fill="#323232" transform="matrix(1.0,0.0,0.0,1.0,0.0,0.0)"/></marker><marker id="ProcessOnMarker1019" markerUnits="userSpaceOnUse" orient="auto" markerWidth="16.23606797749979" markerHeight="10.550836550532098" viewBox="-1.0 -1.3763819204711736 16.23606797749979 10.550836550532098" refX="-1.0" refY="3.8990363547948754"><path id="ProcessOnPath1020" d="M12.0 3.8990363547948754L0.0 7.798072709589751V0.0Z" stroke="#323232" stroke-width="2.0" fill="#323232" transform="matrix(1.0,0.0,0.0,1.0,0.0,0.0)"/></marker><marker id="ProcessOnMarker1030" markerUnits="userSpaceOnUse" orient="auto" markerWidth="16.23606797749979" markerHeight="10.550836550532098" viewBox="-1.0 -1.3763819204711736 16.23606797749979 10.550836550532098" refX="-1.0" refY="3.8990363547948754"><path id="ProcessOnPath1031" d="M12.0 3.8990363547948754L0.0 7.798072709589751V0.0Z" stroke="#323232" stroke-width="2.0" fill="#323232" transform="matrix(1.0,0.0,0.0,1.0,0.0,0.0)"/></marker><marker id="ProcessOnMarker1041" markerUnits="userSpaceOnUse" orient="auto" markerWidth="16.23606797749979" markerHeight="10.550836550532098" viewBox="-1.0 -1.3763819204711736 16.23606797749979 10.550836550532098" refX="-1.0" refY="3.8990363547948754"><path id="ProcessOnPath1042" d="M12.0 3.8990363547948754L0.0 7.798072709589751V0.0Z" stroke="#323232" stroke-width="2.0" fill="#323232" transform="matrix(1.0,0.0,0.0,1.0,0.0,0.0)"/></marker><marker id="ProcessOnMarker1052" markerUnits="userSpaceOnUse" orient="auto" markerWidth="16.23606797749979" markerHeight="10.550836550532098" viewBox="-1.0 -1.3763819204711736 16.23606797749979 10.550836550532098" refX="-1.0" refY="3.8990363547948754"><path id="ProcessOnPath1053" d="M12.0 3.8990363547948754L0.0 7.798072709589751V0.0Z" stroke="#323232" stroke-width="2.0" fill="#323232" transform="matrix(1.0,0.0,0.0,1.0,0.0,0.0)"/></marker><marker id="ProcessOnMarker1056" markerUnits="userSpaceOnUse" orient="auto" markerWidth="16.23606797749979" markerHeight="10.550836550532098" viewBox="-1.0 -1.3763819204711736 16.23606797749979 10.550836550532098" refX="-1.0" refY="3.8990363547948754"><path id="ProcessOnPath1057" d="M12.0 3.8990363547948754L0.0 7.798072709589751V0.0Z" stroke="#323232" stroke-width="2.0" fill="#323232" transform="matrix(1.0,0.0,0.0,1.0,0.0,0.0)"/></marker><marker id="ProcessOnMarker1065" markerUnits="userSpaceOnUse" orient="auto" markerWidth="16.23606797749979" markerHeight="10.550836550532098" viewBox="-1.0 -1.3763819204711736 16.23606797749979 10.550836550532098" refX="-1.0" refY="3.8990363547948754"><path id="ProcessOnPath1066" d="M12.0 3.8990363547948754L0.0 7.798072709589751V0.0Z" stroke="#323232" stroke-width="2.0" fill="#323232" transform="matrix(1.0,0.0,0.0,1.0,0.0,0.0)"/></marker><marker id="ProcessOnMarker1073" markerUnits="userSpaceOnUse" orient="auto" markerWidth="16.23606797749979" markerHeight="10.550836550532098" viewBox="-1.0 -1.3763819204711736 16.23606797749979 10.550836550532098" refX="-1.0" refY="3.8990363547948754"><path id="ProcessOnPath1074" d="M12.0 3.8990363547948754L0.0 7.798072709589751V0.0Z" stroke="#323232" stroke-width="2.0" fill="#323232" transform="matrix(1.0,0.0,0.0,1.0,0.0,0.0)"/></marker><marker id="ProcessOnMarker1084" markerUnits="userSpaceOnUse" orient="auto" markerWidth="16.23606797749979" markerHeight="10.550836550532098" viewBox="-1.0 -1.3763819204711736 16.23606797749979 10.550836550532098" refX="-1.0" refY="3.8990363547948754"><path id="ProcessOnPath1085" d="M12.0 3.8990363547948754L0.0 7.798072709589751V0.0Z" stroke="#323232" stroke-width="2.0" fill="#323232" transform="matrix(1.0,0.0,0.0,1.0,0.0,0.0)"/></marker><marker id="ProcessOnMarker1095" markerUnits="userSpaceOnUse" orient="auto" markerWidth="16.23606797749979" markerHeight="10.550836550532098" viewBox="-1.0 -1.3763819204711736 16.23606797749979 10.550836550532098" refX="-1.0" refY="3.8990363547948754"><path id="ProcessOnPath1096" d="M12.0 3.8990363547948754L0.0 7.798072709589751V0.0Z" stroke="#323232" stroke-width="2.0" fill="#323232" transform="matrix(1.0,0.0,0.0,1.0,0.0,0.0)"/></marker><marker id="ProcessOnMarker1103" markerUnits="userSpaceOnUse" orient="auto" markerWidth="16.23606797749979" markerHeight="10.550836550532098" viewBox="-1.0 -1.3763819204711736 16.23606797749979 10.550836550532098" refX="-1.0" refY="3.8990363547948754"><path id="ProcessOnPath1104" d="M12.0 3.8990363547948754L0.0 7.798072709589751V0.0Z" stroke="#323232" stroke-width="2.0" fill="#323232" transform="matrix(1.0,0.0,0.0,1.0,0.0,0.0)"/></marker><marker id="ProcessOnMarker1114" markerUnits="userSpaceOnUse" orient="auto" markerWidth="16.23606797749979" markerHeight="10.550836550532098" viewBox="-1.0 -1.3763819204711736 16.23606797749979 10.550836550532098" refX="-1.0" refY="3.8990363547948754"><path id="ProcessOnPath1115" d="M12.0 3.8990363547948754L0.0 7.798072709589751V0.0Z" stroke="#323232" stroke-width="2.0" fill="#323232" transform="matrix(1.0,0.0,0.0,1.0,0.0,0.0)"/></marker><marker id="ProcessOnMarker1125" markerUnits="userSpaceOnUse" orient="auto" markerWidth="16.23606797749979" markerHeight="10.550836550532098" viewBox="-1.0 -1.3763819204711736 16.23606797749979 10.550836550532098" refX="-1.0" refY="3.8990363547948754"><path id="ProcessOnPath1126" d="M12.0 3.8990363547948754L0.0 7.798072709589751V0.0Z" stroke="#323232" stroke-width="2.0" fill="#323232" transform="matrix(1.0,0.0,0.0,1.0,0.0,0.0)"/></marker><marker id="ProcessOnMarker1136" markerUnits="userSpaceOnUse" orient="auto" markerWidth="16.23606797749979" markerHeight="10.550836550532098" viewBox="-1.0 -1.3763819204711736 16.23606797749979 10.550836550532098" refX="-1.0" refY="3.8990363547948754"><path id="ProcessOnPath1137" d="M12.0 3.8990363547948754L0.0 7.798072709589751V0.0Z" stroke="#323232" stroke-width="2.0" fill="#323232" transform="matrix(1.0,0.0,0.0,1.0,0.0,0.0)"/></marker><marker id="ProcessOnMarker1146" markerUnits="userSpaceOnUse" orient="auto" markerWidth="16.23606797749979" markerHeight="10.550836550532098" viewBox="-1.0 -1.3763819204711736 16.23606797749979 10.550836550532098" refX="-1.0" refY="3.8990363547948754"><path id="ProcessOnPath1147" d="M12.0 3.8990363547948754L0.0 7.798072709589751V0.0Z" stroke="#323232" stroke-width="2.0" fill="#323232" transform="matrix(1.0,0.0,0.0,1.0,0.0,0.0)"/></marker><marker id="ProcessOnMarker1154" markerUnits="userSpaceOnUse" orient="auto" markerWidth="16.23606797749979" markerHeight="10.550836550532098" viewBox="-1.0 -1.3763819204711736 16.23606797749979 10.550836550532098" refX="-1.0" refY="3.8990363547948754"><path id="ProcessOnPath1155" d="M12.0 3.8990363547948754L0.0 7.798072709589751V0.0Z" stroke="#323232" stroke-width="2.0" fill="#323232" transform="matrix(1.0,0.0,0.0,1.0,0.0,0.0)"/></marker><marker id="ProcessOnMarker1165" markerUnits="userSpaceOnUse" orient="auto" markerWidth="16.23606797749979" markerHeight="10.550836550532098" viewBox="-1.0 -1.3763819204711736 16.23606797749979 10.550836550532098" refX="-1.0" refY="3.8990363547948754"><path id="ProcessOnPath1166" d="M12.0 3.8990363547948754L0.0 7.798072709589751V0.0Z" stroke="#323232" stroke-width="2.0" fill="#323232" transform="matrix(1.0,0.0,0.0,1.0,0.0,0.0)"/></marker><marker id="ProcessOnMarker1172" markerUnits="userSpaceOnUse" orient="auto" markerWidth="16.23606797749979" markerHeight="10.550836550532098" viewBox="-1.0 -1.3763819204711736 16.23606797749979 10.550836550532098" refX="-1.0" refY="3.8990363547948754"><path id="ProcessOnPath1173" d="M12.0 3.8990363547948754L0.0 7.798072709589751V0.0Z" stroke="#323232" stroke-width="2.0" fill="#323232" transform="matrix(1.0,0.0,0.0,1.0,0.0,0.0)"/></marker><marker id="ProcessOnMarker1180" markerUnits="userSpaceOnUse" orient="auto" markerWidth="16.23606797749979" markerHeight="10.550836550532098" viewBox="-1.0 -1.3763819204711736 16.23606797749979 10.550836550532098" refX="-1.0" refY="3.8990363547948754"><path id="ProcessOnPath1181" d="M12.0 3.8990363547948754L0.0 7.798072709589751V0.0Z" stroke="#323232" stroke-width="2.0" fill="#323232" transform="matrix(1.0,0.0,0.0,1.0,0.0,0.0)"/></marker><marker id="ProcessOnMarker1184" markerUnits="userSpaceOnUse" orient="auto" markerWidth="16.23606797749979" markerHeight="10.550836550532098" viewBox="-1.0 -1.3763819204711736 16.23606797749979 10.550836550532098" refX="-1.0" refY="3.8990363547948754"><path id="ProcessOnPath1185" d="M12.0 3.8990363547948754L0.0 7.798072709589751V0.0Z" stroke="#323232" stroke-width="2.0" fill="#323232" transform="matrix(1.0,0.0,0.0,1.0,0.0,0.0)"/></marker><marker id="ProcessOnMarker1188" markerUnits="userSpaceOnUse" orient="auto" markerWidth="16.23606797749979" markerHeight="10.550836550532098" viewBox="-1.0 -1.3763819204711736 16.23606797749979 10.550836550532098" refX="-1.0" refY="3.8990363547948754"><path id="ProcessOnPath1189" d="M12.0 3.8990363547948754L0.0 7.798072709589751V0.0Z" stroke="#323232" stroke-width="2.0" fill="#323232" transform="matrix(1.0,0.0,0.0,1.0,0.0,0.0)"/></marker><marker id="ProcessOnMarker1196" markerUnits="userSpaceOnUse" orient="auto" markerWidth="16.23606797749979" markerHeight="10.550836550532098" viewBox="-1.0 -1.3763819204711736 16.23606797749979 10.550836550532098" refX="-1.0" refY="3.8990363547948754"><path id="ProcessOnPath1197" d="M12.0 3.8990363547948754L0.0 7.798072709589751V0.0Z" stroke="#323232" stroke-width="2.0" fill="#323232" transform="matrix(1.0,0.0,0.0,1.0,0.0,0.0)"/></marker></defs><g id="ProcessOnG1002"><path id="ProcessOnPath1003" d="M8.0 64.0H952.0V886.0H8.0V64.0Z" fill="none"/><g id="ProcessOnG1004"><g id="ProcessOnG1005" transform="matrix(1.0,0.0,0.0,1.0,410.0,84.0)" opacity="1.0"><path id="ProcessOnPath1006" d="M10.0 0L90.0 0C103.33333333333333 0 103.33333333333333 30.0 90.0 30.0L10.0 30.0C-3.3333333333333335 30.0 -3.3333333333333335 0 10.0 0Z" stroke="#323232" stroke-width="2.0" stroke-dasharray="none" opacity="1.0" fill="#ffffff"/><g id="ProcessOnG1007" transform="matrix(1.0,0.0,0.0,1.0,10.0,6.875)"><text id="ProcessOnText1008" fill="#000000" font-size="13" x="39.0" y="13.325" font-family="微软雅黑" size="13" text-anchor="middle" font-weight="normal" font-style="normal" family="微软雅黑" text-decoration="none">do_trig()</text></g></g><g id="ProcessOnG1009"><path id="ProcessOnPath1010" d="M460.0 114.0L460.0 133.5L460.0 133.5L460.0 137.7639320225002" stroke="#323232" stroke-width="2.0" stroke-dasharray="none" fill="none" marker-end="url(#ProcessOnMarker1011)"/></g><g id="ProcessOnG1013" transform="matrix(1.0,0.0,0.0,1.0,405.0,153.0)" opacity="1.0"><path id="ProcessOnPath1014" d="M0 25.0L55.0 0L110.0 25.0L55.0 50.0L0 25.0Z" stroke="#323232" stroke-width="2.0" stroke-dasharray="none" opacity="1.0" fill="#ffffff"/><g id="ProcessOnG1015" transform="matrix(1.0,0.0,0.0,1.0,10.0,16.875)"><text id="ProcessOnText1016" fill="#000000" font-size="13" x="44.0" y="13.325" font-family="微软雅黑" size="13" text-anchor="middle" font-weight="normal" font-style="normal" family="微软雅黑" text-decoration="none">triggered?</text></g></g><g id="ProcessOnG1017"><path id="ProcessOnPath1018" d="M405.0 178.0L238.0 178.0L238.0 226.7639320225002" stroke="#323232" stroke-width="2.0" stroke-dasharray="none" fill="none" marker-end="url(#ProcessOnMarker1019)"/><g id="ProcessOnG1021" transform="matrix(1.0,0.0,0.0,1.0,297.1180339887499,169.875)"><path id="ProcessOnPath1022" d="M0 0H21.0V16.25H0Z" fill="#fff" transform="matrix(1.0,0.0,0.0,1.0,-10.5,0.0)"/><text id="ProcessOnText1023" fill="#000000" font-size="13" x="0.0" y="13.325" font-family="微软雅黑" size="13" text-anchor="middle" font-weight="normal" font-style="normal" family="微软雅黑" text-decoration="none">Yes</text></g></g><g id="ProcessOnG1024" transform="matrix(1.0,0.0,0.0,1.0,163.0,242.0)" opacity="1.0"><path id="ProcessOnPath1025" d="M0 25.0L75.0 0L150.0 25.0L75.0 50.0L0 25.0Z" stroke="#323232" stroke-width="2.0" stroke-dasharray="none" opacity="1.0" fill="#ffffff"/><g id="ProcessOnG1026" transform="matrix(1.0,0.0,0.0,1.0,10.0,16.875)"><text id="ProcessOnText1027" fill="#000000" font-size="13" x="64.0" y="13.325" font-family="微软雅黑" size="13" text-anchor="middle" font-weight="normal" font-style="normal" family="微软雅黑" text-decoration="none">pre_trigs &gt; 0</text></g></g><g id="ProcessOnG1028"><path id="ProcessOnPath1029" d="M163.0 267.0L103.0 267.0L103.0 279.7639320225002" stroke="#323232" stroke-width="2.0" stroke-dasharray="none" fill="none" marker-end="url(#ProcessOnMarker1030)"/><g id="ProcessOnG1032" transform="matrix(1.0,0.0,0.0,1.0,126.61803398874989,258.875)"><path id="ProcessOnPath1033" d="M0 0H21.0V16.25H0Z" fill="#fff" transform="matrix(1.0,0.0,0.0,1.0,-10.5,0.0)"/><text id="ProcessOnText1034" fill="#000000" font-size="13" x="0.0" y="13.325" font-family="微软雅黑" size="13" text-anchor="middle" font-weight="normal" font-style="normal" family="微软雅黑" text-decoration="none">Yes</text></g></g><g id="ProcessOnG1035" transform="matrix(1.0,0.0,0.0,1.0,28.0,295.0)" opacity="1.0"><path id="ProcessOnPath1036" d="M0 0L150.0 0L150.0 30.0L0 30.0Z" stroke="#323232" stroke-width="2.0" stroke-dasharray="none" opacity="1.0" fill="#ffffff"/><g id="ProcessOnG1037" transform="matrix(1.0,0.0,0.0,1.0,10.0,6.875)"><text id="ProcessOnText1038" fill="#000000" font-size="13" x="64.0" y="13.325" font-family="微软雅黑" size="13" text-anchor="middle" font-weight="bold" font-style="italic" family="微软雅黑" text-decoration="none">write out pre_trigs</text></g></g><g id="ProcessOnG1039"><path id="ProcessOnPath1040" d="M238.0 292.0L238.0 339.25L237.5 339.25L237.5 371.2639320225002" stroke="#323232" stroke-width="2.0" stroke-dasharray="none" fill="none" marker-end="url(#ProcessOnMarker1041)"/><g id="ProcessOnG1043" transform="matrix(1.0,0.0,0.0,1.0,238.0,323.75696601125014)"><path id="ProcessOnPath1044" d="M0 0H19.0V16.25H0Z" fill="#fff" transform="matrix(1.0,0.0,0.0,1.0,-9.5,0.0)"/><text id="ProcessOnText1045" fill="#000000" font-size="13" x="0.0" y="13.325" font-family="微软雅黑" size="13" text-anchor="middle" font-weight="normal" font-style="normal" family="微软雅黑" text-decoration="none">No</text></g></g><g id="ProcessOnG1046" transform="matrix(1.0,0.0,0.0,1.0,177.5,386.5)" opacity="1.0"><path id="ProcessOnPath1047" d="M0 0L120.0 0L120.0 30.0L0 30.0Z" stroke="#323232" stroke-width="2.0" stroke-dasharray="none" opacity="1.0" fill="#ffffff"/><g id="ProcessOnG1048" transform="matrix(1.0,0.0,0.0,1.0,10.0,6.875)"><text id="ProcessOnText1049" fill="#000000" font-size="13" x="49.0" y="13.325" font-family="微软雅黑" size="13" text-anchor="middle" font-weight="bold" font-style="italic" family="微软雅黑" text-decoration="none">write out trig</text></g></g><g id="ProcessOnG1050"><path id="ProcessOnPath1051" d="M103.0 325.0L103.0 355.75L237.5 355.75L237.5 371.2639320225002" stroke="#323232" stroke-width="2.0" stroke-dasharray="none" fill="none" marker-end="url(#ProcessOnMarker1052)"/></g><g id="ProcessOnG1054"><path id="ProcessOnPath1055" d="M237.5 416.5L237.5 440.75L238.0 440.75L238.0 449.7639320225002" stroke="#323232" stroke-width="2.0" stroke-dasharray="none" fill="none" marker-end="url(#ProcessOnMarker1056)"/></g><g id="ProcessOnG1058" transform="matrix(1.0,0.0,0.0,1.0,188.0,465.0)" opacity="1.0"><path id="ProcessOnPath1059" d="M0 0L100.0 0L100.0 50.0L0 50.0Z" stroke="#323232" stroke-width="2.0" stroke-dasharray="none" opacity="1.0" fill="#ffffff"/><g id="ProcessOnG1060" transform="matrix(1.0,0.0,0.0,1.0,10.0,8.75)"><text id="ProcessOnText1061" fill="#009900" font-size="13" x="39.0" y="13.325" font-family="微软雅黑" size="13" text-anchor="middle" font-weight="normal" font-style="normal" family="微软雅黑" text-decoration="none">trig++</text><text id="ProcessOnText1062" fill="#009900" font-size="13" x="39.0" y="29.575" font-family="微软雅黑" size="13" text-anchor="middle" font-weight="normal" font-style="normal" family="微软雅黑" text-decoration="none">last = trig</text></g></g><g id="ProcessOnG1063"><path id="ProcessOnPath1064" d="M238.0 515.0L238.0 541.25L238.0 541.25L238.0 552.2639320225002" stroke="#323232" stroke-width="2.0" stroke-dasharray="none" fill="none" marker-end="url(#ProcessOnMarker1065)"/></g><g id="ProcessOnG1067" transform="matrix(1.0,0.0,0.0,1.0,163.0,567.5)" opacity="1.0"><path id="ProcessOnPath1068" d="M0 25.0L75.0 0L150.0 25.0L75.0 50.0L0 25.0Z" stroke="#323232" stroke-width="2.0" stroke-dasharray="none" opacity="1.0" fill="#ffffff"/><g id="ProcessOnG1069" transform="matrix(1.0,0.0,0.0,1.0,10.0,16.875)"><text id="ProcessOnText1070" fill="#000000" font-size="13" x="64.0" y="13.325" font-family="微软雅黑" size="13" text-anchor="middle" font-weight="normal" font-style="normal" family="微软雅黑" text-decoration="none">post_trigs == 0</text></g></g><g id="ProcessOnG1071"><path id="ProcessOnPath1072" d="M163.0 592.5L123.0 592.5L123.0 613.7639320225002" stroke="#323232" stroke-width="2.0" stroke-dasharray="none" fill="none" marker-end="url(#ProcessOnMarker1073)"/><g id="ProcessOnG1075" transform="matrix(1.0,0.0,0.0,1.0,132.36803398874991,584.375)"><path id="ProcessOnPath1076" d="M0 0H21.0V16.25H0Z" fill="#fff" transform="matrix(1.0,0.0,0.0,1.0,-10.5,0.0)"/><text id="ProcessOnText1077" fill="#000000" font-size="13" x="0.0" y="13.325" font-family="微软雅黑" size="13" text-anchor="middle" font-weight="normal" font-style="normal" family="微软雅黑" text-decoration="none">Yes</text></g></g><g id="ProcessOnG1078" transform="matrix(1.0,0.0,0.0,1.0,48.0,629.0)" opacity="1.0"><path id="ProcessOnPath1079" d="M0 0L150.0 0L150.0 29.0L0 29.0Z" stroke="#323232" stroke-width="2.0" stroke-dasharray="none" opacity="1.0" fill="#ffffff"/><g id="ProcessOnG1080" transform="matrix(1.0,0.0,0.0,1.0,10.0,6.375)"><text id="ProcessOnText1081" fill="#009900" font-size="13" x="64.0" y="13.325" font-family="微软雅黑" size="13" text-anchor="middle" font-weight="normal" font-style="normal" family="微软雅黑" text-decoration="none">post_trigs = max</text></g></g><g id="ProcessOnG1082"><path id="ProcessOnPath1083" d="M238.0 617.5L238.0 662.75L237.5 662.75L237.5 692.7639320225002" stroke="#323232" stroke-width="2.0" stroke-dasharray="none" fill="none" marker-end="url(#ProcessOnMarker1084)"/><g id="ProcessOnG1086" transform="matrix(1.0,0.0,0.0,1.0,238.0,647.2569660112501)"><path id="ProcessOnPath1087" d="M0 0H19.0V16.25H0Z" fill="#fff" transform="matrix(1.0,0.0,0.0,1.0,-9.5,0.0)"/><text id="ProcessOnText1088" fill="#000000" font-size="13" x="0.0" y="13.325" font-family="微软雅黑" size="13" text-anchor="middle" font-weight="normal" font-style="normal" family="微软雅黑" text-decoration="none">No</text></g></g><g id="ProcessOnG1089" transform="matrix(1.0,0.0,0.0,1.0,410.0,816.0)" opacity="1.0"><path id="ProcessOnPath1090" d="M16.666666666666668 0L83.33333333333333 0C105.55555555555556 0 105.55555555555556 50.0 83.33333333333333 50.0L16.666666666666668 50.0C-5.555555555555556 50.0 -5.555555555555556 0 16.666666666666668 0Z" stroke="#323232" stroke-width="2.0" stroke-dasharray="none" opacity="1.0" fill="#ffffff"/><g id="ProcessOnG1091" transform="matrix(1.0,0.0,0.0,1.0,10.0,16.875)"><text id="ProcessOnText1092" fill="#000000" font-size="13" x="39.0" y="13.325" font-family="微软雅黑" size="13" text-anchor="middle" font-weight="normal" font-style="normal" family="微软雅黑" text-decoration="none">return</text></g></g><g id="ProcessOnG1093"><path id="ProcessOnPath1094" d="M123.0 658.0L123.0 683.0L237.5 683.0L237.5 692.7639320225002" stroke="#323232" stroke-width="2.0" stroke-dasharray="none" fill="none" marker-end="url(#ProcessOnMarker1095)"/></g><g id="ProcessOnG1097" transform="matrix(1.0,0.0,0.0,1.0,175.0,708.0)" opacity="1.0"><path id="ProcessOnPath1098" d="M0 0L125.0 0L125.0 40.0L0 40.0Z" stroke="#323232" stroke-width="2.0" stroke-dasharray="none" opacity="1.0" fill="#ffffff"/><g id="ProcessOnG1099" transform="matrix(1.0,0.0,0.0,1.0,10.0,11.875)"><text id="ProcessOnText1100" fill="#ff3333" font-size="13" x="51.5" y="13.325" font-family="微软雅黑" size="13" text-anchor="middle" font-weight="normal" font-style="normal" family="微软雅黑" text-decoration="none">saved -= ntrigs</text></g></g><g id="ProcessOnG1101"><path id="ProcessOnPath1102" d="M515.0 178.0L703.0 178.0L703.0 226.0496463082145" stroke="#323232" stroke-width="2.0" stroke-dasharray="none" fill="none" marker-end="url(#ProcessOnMarker1103)"/><g id="ProcessOnG1105" transform="matrix(1.0,0.0,0.0,1.0,633.0248231541073,169.875)"><path id="ProcessOnPath1106" d="M0 0H19.0V16.25H0Z" fill="#fff" transform="matrix(1.0,0.0,0.0,1.0,-9.5,0.0)"/><text id="ProcessOnText1107" fill="#000000" font-size="13" x="0.0" y="13.325" font-family="微软雅黑" size="13" text-anchor="middle" font-weight="normal" font-style="normal" family="微软雅黑" text-decoration="none">No</text></g></g><g id="ProcessOnG1108" transform="matrix(1.0,0.0,0.0,1.0,628.0,242.0)" opacity="1.0"><path id="ProcessOnPath1109" d="M0 25.0L75.0 0L150.0 25.0L75.0 50.0L0 25.0Z" stroke="#323232" stroke-width="2.0" stroke-dasharray="none" opacity="1.0" fill="#ffffff"/><g id="ProcessOnG1110" transform="matrix(1.0,0.0,0.0,1.0,10.0,16.875)"><text id="ProcessOnText1111" fill="#000000" font-size="13" x="64.0" y="13.325" font-family="微软雅黑" size="13" text-anchor="middle" font-weight="normal" font-style="normal" family="微软雅黑" text-decoration="none">post_trigs &gt; 0</text></g></g><g id="ProcessOnG1112"><path id="ProcessOnPath1113" d="M628.0 267.0L554.0 267.0L554.0 292.7639320225002" stroke="#323232" stroke-width="2.0" stroke-dasharray="none" fill="none" marker-end="url(#ProcessOnMarker1114)"/><g id="ProcessOnG1116" transform="matrix(1.0,0.0,0.0,1.0,578.1180339887499,258.875)"><path id="ProcessOnPath1117" d="M0 0H21.0V16.25H0Z" fill="#fff" transform="matrix(1.0,0.0,0.0,1.0,-10.5,0.0)"/><text id="ProcessOnText1118" fill="#000000" font-size="13" x="0.0" y="13.325" font-family="微软雅黑" size="13" text-anchor="middle" font-weight="normal" font-style="normal" family="微软雅黑" text-decoration="none">Yes</text></g></g><g id="ProcessOnG1119" transform="matrix(1.0,0.0,0.0,1.0,489.0,308.0)" opacity="1.0"><path id="ProcessOnPath1120" d="M0 0L130.0 0L130.0 30.0L0 30.0Z" stroke="#323232" stroke-width="2.0" stroke-dasharray="none" opacity="1.0" fill="#ffffff"/><g id="ProcessOnG1121" transform="matrix(1.0,0.0,0.0,1.0,10.0,6.875)"><text id="ProcessOnText1122" fill="#000000" font-size="13" x="54.0" y="13.325" font-family="微软雅黑" size="13" text-anchor="middle" font-weight="bold" font-style="italic" family="微软雅黑" text-decoration="none">write out trig</text></g></g><g id="ProcessOnG1123"><path id="ProcessOnPath1124" d="M778.0 267.0L857.0 267.0L857.0 287.7639320225002" stroke="#323232" stroke-width="2.0" stroke-dasharray="none" fill="none" marker-end="url(#ProcessOnMarker1125)"/><g id="ProcessOnG1127" transform="matrix(1.0,0.0,0.0,1.0,827.8819660112501,258.875)"><path id="ProcessOnPath1128" d="M0 0H19.0V16.25H0Z" fill="#fff" transform="matrix(1.0,0.0,0.0,1.0,-9.5,0.0)"/><text id="ProcessOnText1129" fill="#000000" font-size="13" x="0.0" y="13.325" font-family="微软雅黑" size="13" text-anchor="middle" font-weight="normal" font-style="normal" family="微软雅黑" text-decoration="none">No</text></g></g><g id="ProcessOnG1130" transform="matrix(1.0,0.0,0.0,1.0,807.0,303.0)" opacity="1.0"><path id="ProcessOnPath1131" d="M0 0L100.0 0L100.0 38.0L0 38.0Z" stroke="#323232" stroke-width="2.0" stroke-dasharray="none" opacity="1.0" fill="#ffffff"/><g id="ProcessOnG1132" transform="matrix(1.0,0.0,0.0,1.0,10.0,10.875)"><text id="ProcessOnText1133" fill="#009900" font-size="13" x="39.0" y="13.325" font-family="微软雅黑" size="13" text-anchor="middle" font-weight="normal" font-style="normal" family="微软雅黑" text-decoration="none">trig++</text></g></g><g id="ProcessOnG1134"><path id="ProcessOnPath1135" d="M554.0 338.0L554.0 377.25L554.0 377.25L554.0 401.2639320225002" stroke="#323232" stroke-width="2.0" stroke-dasharray="none" fill="none" marker-end="url(#ProcessOnMarker1136)"/></g><g id="ProcessOnG1138" transform="matrix(1.0,0.0,0.0,1.0,504.0,416.5)" opacity="1.0"><path id="ProcessOnPath1139" d="M0 0L100.0 0L100.0 70.0L0 70.0Z" stroke="#323232" stroke-width="2.0" stroke-dasharray="none" opacity="1.0" fill="#ffffff"/><g id="ProcessOnG1140" transform="matrix(1.0,0.0,0.0,1.0,10.0,10.625)"><text id="ProcessOnText1141" fill="#009900" font-size="13" x="39.0" y="13.325" font-family="微软雅黑" size="13" text-anchor="middle" font-weight="normal" font-style="normal" family="微软雅黑" text-decoration="none">post_trigs--</text><text id="ProcessOnText1142" fill="#009900" font-size="13" x="39.0" y="29.575" font-family="微软雅黑" size="13" text-anchor="middle" font-weight="normal" font-style="normal" family="微软雅黑" text-decoration="none">trig++</text><text id="ProcessOnText1143" fill="#009900" font-size="13" x="39.0" y="45.825" font-family="微软雅黑" size="13" text-anchor="middle" font-weight="normal" font-style="normal" family="微软雅黑" text-decoration="none">last = trig</text></g></g><g id="ProcessOnG1144"><path id="ProcessOnPath1145" d="M857.0 341.0L857.0 373.5L857.0 373.5L857.0 390.7639320225002" stroke="#323232" stroke-width="2.0" stroke-dasharray="none" fill="none" marker-end="url(#ProcessOnMarker1146)"/></g><g id="ProcessOnG1148" transform="matrix(1.0,0.0,0.0,1.0,782.0,406.0)" opacity="1.0"><path id="ProcessOnPath1149" d="M0 25.0L75.0 0L150.0 25.0L75.0 50.0L0 25.0Z" stroke="#323232" stroke-width="2.0" stroke-dasharray="none" opacity="1.0" fill="#ffffff"/><g id="ProcessOnG1150" transform="matrix(1.0,0.0,0.0,1.0,10.0,16.875)"><text id="ProcessOnText1151" fill="#000000" font-size="13" x="64.0" y="13.325" font-family="微软雅黑" size="13" text-anchor="middle" font-weight="normal" font-style="normal" family="微软雅黑" text-decoration="none">pre_trigs &gt; max</text></g></g><g id="ProcessOnG1152"><path id="ProcessOnPath1153" d="M782.0 431.0L703.5 431.0L703.5 456.0139320225002" stroke="#323232" stroke-width="2.0" stroke-dasharray="none" fill="none" marker-end="url(#ProcessOnMarker1154)"/><g id="ProcessOnG1156" transform="matrix(1.0,0.0,0.0,1.0,730.2430339887499,422.875)"><path id="ProcessOnPath1157" d="M0 0H21.0V16.25H0Z" fill="#fff" transform="matrix(1.0,0.0,0.0,1.0,-10.5,0.0)"/><text id="ProcessOnText1158" fill="#000000" font-size="13" x="0.0" y="13.325" font-family="微软雅黑" size="13" text-anchor="middle" font-weight="normal" font-style="normal" family="微软雅黑" text-decoration="none">Yes</text></g></g><g id="ProcessOnG1159" transform="matrix(1.0,0.0,0.0,1.0,653.0,471.25)" opacity="1.0"><path id="ProcessOnPath1160" d="M0 0L101.0 0L101.0 29.0L0 29.0Z" stroke="#323232" stroke-width="2.0" stroke-dasharray="none" opacity="1.0" fill="#ffffff"/><g id="ProcessOnG1161" transform="matrix(1.0,0.0,0.0,1.0,10.0,6.375)"><text id="ProcessOnText1162" fill="#009900" font-size="13" x="39.5" y="13.325" font-family="微软雅黑" size="13" text-anchor="middle" font-weight="normal" font-style="normal" family="微软雅黑" text-decoration="none">last++</text></g></g><g id="ProcessOnG1163"><path id="ProcessOnPath1164" d="M857.0 456.0L857.0 697.0L460.0 697.0L460.0 800.7639320225002" stroke="#323232" stroke-width="2.0" stroke-dasharray="none" fill="none" marker-end="url(#ProcessOnMarker1165)"/><g id="ProcessOnG1167" transform="matrix(1.0,0.0,0.0,1.0,727.1180339887499,688.875)"><path id="ProcessOnPath1168" d="M0 0H19.0V16.25H0Z" fill="#fff" transform="matrix(1.0,0.0,0.0,1.0,-9.5,0.0)"/><text id="ProcessOnText1169" fill="#000000" font-size="13" x="0.0" y="13.325" font-family="微软雅黑" size="13" text-anchor="middle" font-weight="normal" font-style="normal" family="微软雅黑" text-decoration="none">No</text></g></g><g id="ProcessOnG1170"><path id="ProcessOnPath1171" d="M554.0 486.5L554.0 525.75L554.0 525.75L554.0 549.7639320225002" stroke="#323232" stroke-width="2.0" stroke-dasharray="none" fill="none" marker-end="url(#ProcessOnMarker1172)"/></g><g id="ProcessOnG1174" transform="matrix(1.0,0.0,0.0,1.0,508.0,565.0)" opacity="1.0"><path id="ProcessOnPath1175" d="M0 0L92.0 0L92.0 32.0L0 32.0Z" stroke="#323232" stroke-width="2.0" stroke-dasharray="none" opacity="1.0" fill="#ffffff"/><g id="ProcessOnG1176" transform="matrix(1.0,0.0,0.0,1.0,10.0,7.875)"><text id="ProcessOnText1177" fill="#ff0000" font-size="13" x="35.0" y="13.325" font-family="微软雅黑" size="13" text-anchor="middle" font-weight="normal" font-style="normal" family="微软雅黑" text-decoration="none">saved--</text></g></g><g id="ProcessOnG1178"><path id="ProcessOnPath1179" d="M237.5 748.0L237.5 782.0L460.0 782.0L460.0 800.7639320225002" stroke="#323232" stroke-width="2.0" stroke-dasharray="none" fill="none" marker-end="url(#ProcessOnMarker1180)"/></g><g id="ProcessOnG1182"><path id="ProcessOnPath1183" d="M703.5 500.25L703.5 532.625L703.0 532.625L703.0 549.7639320225002" stroke="#323232" stroke-width="2.0" stroke-dasharray="none" fill="none" marker-end="url(#ProcessOnMarker1184)"/></g><g id="ProcessOnG1186"><path id="ProcessOnPath1187" d="M554.0 597.0L554.0 696.5L460.0 696.5L460.0 800.7639320225002" stroke="#323232" stroke-width="2.0" stroke-dasharray="none" fill="none" marker-end="url(#ProcessOnMarker1188)"/></g><g id="ProcessOnG1190" transform="matrix(1.0,0.0,0.0,1.0,657.0,565.0)" opacity="1.0"><path id="ProcessOnPath1191" d="M0 0L92.0 0L92.0 32.0L0 32.0Z" stroke="#323232" stroke-width="2.0" stroke-dasharray="none" opacity="1.0" fill="#ffffff"/><g id="ProcessOnG1192" transform="matrix(1.0,0.0,0.0,1.0,10.0,7.875)"><text id="ProcessOnText1193" fill="#ff0000" font-size="13" x="35.0" y="13.325" font-family="微软雅黑" size="13" text-anchor="middle" font-weight="normal" font-style="normal" family="微软雅黑" text-decoration="none">saved--</text></g></g><g id="ProcessOnG1194"><path id="ProcessOnPath1195" d="M703.0 597.0L703.0 696.5L460.0 696.5L460.0 800.7639320225002" stroke="#323232" stroke-width="2.0" stroke-dasharray="none" fill="none" marker-end="url(#ProcessOnMarker1196)"/></g></g></g></svg>